<svg xmlns="http://www.w3.org/2000/svg" xmlns:xlink="http://www.w3.org/1999/xlink" id="Camada_1" x="0px" y="0px" viewBox="0 0 727.5 564.9" style="enable-background:new 0 0 727.5 564.9;" xml:space="preserve"><style type="text/css">	.st0{fill:#6A7123;}	.st1{fill:#E27A60;}</style><title>logo</title><path class="st0" d="M164,127.3c-4,2.7-4.8,3.9-7.4,7.7c5.8-1.9,9.2-1.5,9.2-1.5c-0.7,1.1-1.4,2.4-1.9,3.6 c7.6-3.1,15.3-4.3,23.3-2.1c-2.4,0.9-4.3,3.2-3.9,5.6c0.7,2.5,3,4.2,5.6,4.2c-1.7-0.9-2.4-3-1.6-4.7c0-0.1,0.1-0.1,0.1-0.2 c1.2-1.5,3-2.4,4.9-2.5c5.6-0.7,9.9,5.6,12.1,9.5c4.2,7.3,4.3,16.1,1.9,23.9c1.2-3.8,3.4-7.1,4.3-11c0.5-2.1,0.7-4.1,0.7-6.3 c0-9.8-5.3-18.2-14.1-24.6c-10.4-7.7-22.1-18.2-24.5-30.9c-1.5,4.1-0.8,8.2,0.5,12.4c-4.4-6-15.4,3.9-20.5-2 C158.3,114.5,152.1,125,164,127.3z M171.6,122.3c5.2,2.5,10.7,4.5,15.9,6.8s10.5,5.2,14.5,9.3c2,2,3.7,4.3,5,6.8 c0.6,1.2,1.1,2.5,1.4,3.9c0.3,1.3,0.4,2.7,0.4,4c-0.2-5.5-3.2-10.4-7.3-14.3s-9.1-6.6-14.4-9s-10.7-4.3-15.9-7 c-2.6-1.3-5-2.9-7.3-4.6c-2.3-1.7-4.4-3.6-6.3-5.6C161.8,116.5,166.5,119.7,171.6,122.3z"></path><path class="st0" d="M536,195.2c-4.8-13.6-15.8-22.3-29.8-24.6c-1.2-0.3-2.5-0.3-3.7,0.1c-2.2,0.9-2.2,3.5-0.5,4.9 c1.1,0.9,2.7,1.1,3.6,1.9c-8.7,1.9-4.3,12.1,5,17.1c9.6,5.1,17.8,11.8,21.6,22.6c-1-1.8-3.2-2.1-5.3-1.1c-2.3,1.2-3.5,3.8-3.9,6.3 c-0.2,2.6-0.2,5.1-0.1,7.7c0.1,2.5,0,5-0.3,7.4c-1,5.3-2.5,10.5-4.6,15.5c-6,14.7-18.2,29.1-33.2,35.6c23.6-10.2,39-27.5,48.4-51.5 C538.7,223.8,540.8,208.7,536,195.2z M532.9,196.7c-1.6-3.8-3.7-7.4-6.1-10.7c-2.5-3.3-5.5-6.1-9-8.2c-3.5-2.2-7.2-4-11.1-5.3 c4.1,1,8,2.5,11.6,4.6c3.7,2.1,6.8,4.9,9.3,8.3c2.5,3.4,4.5,7.1,6,11c1.6,3.9,2.5,8,2.7,12.1C535.6,204.5,534.5,200.5,532.9,196.7 L532.9,196.7z"></path><path class="st0" d="M238.1,289.2c-18.5-9.5-33.9-24.1-44.4-42.1c-1.3,6.8,1.6,16.1,6.7,20.8c-2.9-0.5-10.5-5.6-11-5.6 C195.3,275.8,225.2,286.8,238.1,289.2z M199.3,258.7c1.8,2.5,3.5,5.1,5.4,7.6c1.9,2.4,3.9,4.7,6.1,6.8c2.1,2.1,4.4,4.1,6.8,5.8 c2.4,1.7,4.9,3.3,7.4,4.8c-2.7-1.2-5.3-2.6-7.7-4.3c-2.5-1.7-4.8-3.6-7-5.7c-2.2-2.2-4.2-4.5-6-7 C202.4,264.1,200.7,261.4,199.3,258.7z"></path><path class="st0" d="M526.8,85.1c0.2,6.9-2.7,13.5-6.2,19.5s-7.7,11.8-10.3,18.2c-6.4,15.4-3.1,33.9,8.3,46.4 c-6-7.4-10.9-28.6,10-54.8c17.3-21.4,17.3-31.8,34.3-42.1c-8.9-1.9-21.2,3.6-25.3,11c-1.6-8.8-12.2-15.1-21.8-15 C522.6,71.2,526.5,78.3,526.8,85.1z"></path><path class="st0" d="M225,170.8c-1.2-0.4-2.5-0.5-3.7-0.2c-13.9,2.3-25,10.9-29.8,24.6s-2.6,28.7,2.5,42.1 c9.4,24,24.8,41.3,48.4,51.5c-14.9-6.4-27.1-20.9-33.1-35.6c-2.1-5-3.7-10.1-4.6-15.5c-0.4-2.5-0.5-4.9-0.3-7.4 c0.2-2.6,0.1-5.2-0.1-7.7c-0.3-2.5-1.5-5.2-3.9-6.3c-2-1-4.3-0.7-5.3,1.1c3.8-10.7,12-17.5,21.6-22.6c9.3-5,13.6-15.2,5-17.1 c0.9-0.8,2.5-0.9,3.6-1.9C227.1,174.3,227.2,171.8,225,170.8z M209.8,177.8c-3.5,2.1-6.5,4.9-9,8.2c-2.5,3.3-4.5,6.9-6.1,10.7 c-1.6,3.8-2.8,7.8-3.4,11.8c0.3-4.2,1.2-8.2,2.7-12.1c1.5-3.9,3.5-7.6,6-11c2.5-3.4,5.7-6.2,9.3-8.3c3.6-2.1,7.5-3.6,11.6-4.6 C217,173.9,213.3,175.7,209.8,177.8L209.8,177.8z"></path><path class="st0" d="M554.2,110.1c1.3-4.1,1.9-8.3,0.5-12.4c-2.4,12.7-14.1,23.2-24.5,30.9c-8.7,6.6-14.1,14.8-14.1,24.6 c0,2.1,0.2,4.2,0.7,6.3c0.8,3.9,3.1,7.3,4.2,11c-2.5-7.7-2.4-16.7,1.9-23.9c2.2-3.9,6.6-10.2,12.1-9.5c1.9,0.2,3.9,1,4.9,2.5 c1,1.7,0.4,3.8-1.3,4.8c-0.1,0-0.1,0.1-0.2,0.1c2.6,0.1,4.9-1.7,5.6-4.2c0.5-2.3-1.4-4.7-3.9-5.6c8-2.2,15.7-1,23.3,2.1 c-0.5-1.3-1.1-2.5-1.8-3.6c0,0,3.4-0.4,9.2,1.5c-2.5-3.9-3.4-5-7.4-7.7c11.8-2.2,5.6-12.8,11.3-19.2 C569.6,114,558.6,104.1,554.2,110.1z M563.5,118.3c-2.3,1.7-4.8,3.2-7.3,4.6c-5.2,2.6-10.7,4.6-15.9,7s-10.3,5.1-14.4,9 s-7,8.8-7.2,14.3c0-1.3,0.1-2.7,0.4-4c0.3-1.3,0.8-2.6,1.4-3.9c1.3-2.5,3-4.8,5-6.8c4-4.1,9.3-6.9,14.5-9.3s10.8-4.3,15.9-6.8 c5.1-2.5,9.8-5.8,14-9.7C567.9,114.7,565.8,116.6,563.5,118.3z"></path><path class="st0" d="M210.7,86.5c-1.5,2.5-0.1,5.6,1.9,7.6c-0.9-1-0.8-2.6,0.2-3.5c0.2-0.1,0.3-0.3,0.5-0.4c1.5-0.7,3.2-0.5,4.5,0.5 c1.2,1,1.9,2.4,2.1,3.9c0.1,1.5,0.2,3,0.1,4.5c-0.4,8.9,2.2,16.8,6.6,24.7c-4.6-8.6-2.5-21.9,0.1-30.6c0.3-0.9,3.8-10.2-0.7-7.2 c-0.8,0.7-1.4,1.6-1.6,2.6c-0.7-2.8-3-4.9-5.8-5.5C215.5,82.7,212.4,84,210.7,86.5z"></path><path class="st0" d="M199,114.7c21,26.2,16.1,47.3,10,54.8c11.4-12.7,14.7-31.1,8.3-46.4c-2.7-6.4-6.9-12.2-10.4-18.2 s-6.4-12.7-6.2-19.5s4.2-14,11.1-16.5c-9.6-0.1-20.2,6.3-21.8,15c-4.1-7.5-16.4-13-25.3-11C181.8,82.8,181.8,93.3,199,114.7z"></path><path class="st0" d="M501.1,123.8c4.3-7.9,7-15.8,6.6-24.6c-0.2-1.5-0.1-3,0.1-4.5c0.2-1.5,0.9-2.9,2.1-3.9c1.3-1,3-1.2,4.5-0.5 c1.2,0.7,1.7,2.2,1,3.5c-0.1,0.1-0.2,0.3-0.3,0.4c2-2.1,3.3-5.2,1.8-7.6c-1.7-2.5-4.7-3.8-7.7-3.3c-2.8,0.6-5.1,2.7-5.8,5.5 c-0.2-1-0.8-2-1.6-2.6c-4.5-3-1,6.3-0.7,7.2C503.7,102,505.8,115.2,501.1,123.8z"></path><path class="st0" d="M542.7,103.4L524.1,127C533.4,122.1,540.1,113.5,542.7,103.4z"></path><path class="st0" d="M538.2,262.3c-0.5-0.1-8.2,5-11,5.6c5.1-4.7,8-14,6.7-20.8c-10.5,18-25.9,32.6-44.4,42.1 C502.4,286.8,532.2,275.8,538.2,262.3z M517.3,273.7c-2.1,2.1-4.5,4-7,5.7c-2.4,1.7-5,3.1-7.7,4.3c2.6-1.5,5-3.1,7.4-4.8 c2.4-1.8,4.7-3.7,6.8-5.8c2.2-2.1,4.2-4.4,6.1-6.8c1.9-2.4,3.7-5,5.4-7.6c-1.5,2.8-3.1,5.4-4.9,8 C521.5,269.2,519.5,271.5,517.3,273.7L517.3,273.7z"></path><path class="st0" d="M203.4,127l-18.5-23.6C187.4,113.5,194.1,122.1,203.4,127z"></path><path class="st0" d="M443.6,325.5c-2,0.1-4.1-0.1-6-0.7c9.6,6.6,22.4,6.2,31.6-1.1c2.1-1.6,3.9-3.5,6.2-4.9s5.2-1.9,7.5-0.8 c-1.5-3-2.9-5.9-6.2-6.8c-2.9-0.8-6-0.6-8.7,0.6c0.9-1,1-2.5,0.4-3.7c-1-1.2-2.8-1.6-4.2-1c-1.5,0.6-2.7,1.6-3.8,2.8 c0.3-2.1-0.2-4.5-1.9-5.7c-1.8-1.2-4.2-1.3-6.1-0.3c3.4,3.7,4.5,9.1,2.7,13.8C452.9,322.3,448.5,325.2,443.6,325.5z M457.6,325.2 c1.3-0.4,2.4-1,3.5-1.7c1-1,1.9-2.1,2.6-3.4c1-1.7,1.6-3.6,1.8-5.6c0.4,2.1,0,4.2-1.1,6c-0.2,0.4-0.4,0.7-0.7,1.1 c1.5-1.2,2.9-2.5,4.5-3.8c1.7-1.5,3.7-2.6,5.8-3.3c-2,1-3.8,2.2-5.4,3.7c-1.6,1.5-3.2,3.1-4.9,4.5c-1.7,1.4-3.8,2.5-6,3.1 c-2.2,0.6-4.4,0.7-6.6,0.4C453.3,326.2,455.4,325.8,457.6,325.2L457.6,325.2z"></path><path class="st0" d="M503.8,334c10-7,14.6-17.8,13.4-29.7c0-1.1-0.4-2.1-1-3c-1.3-1.6-3.3-0.9-4.1,0.8c-0.5,1.1-0.3,2.4-0.7,3.3 c-3.5-6.7-10.8-0.8-12.8,7.9c-2,9-5.7,17.2-13.5,22.6c1.2-1.2,1-3.1-0.3-4.5c-1.5-1.6-3.9-2-6-1.7c-2.2,0.4-4.3,0.9-6.3,1.6 c-2,0.7-4.1,1.1-6.2,1.4c-4.5,0.4-9.1,0.3-13.6-0.3c-13.3-1.6-27.9-8.3-36.5-19.1c13.6,16.9,31.1,25.7,52.8,28 C481,342.6,493.8,340.9,503.8,334z M501.8,331.8c2.7-2.2,5.2-4.6,7.3-7.4c2.1-2.7,3.7-5.9,4.6-9.2c1-3.4,1.6-6.8,1.9-10.3 c0.1,3.5-0.3,7-1.2,10.4c-0.9,3.4-2.5,6.7-4.6,9.5c-2.2,2.8-4.7,5.3-7.6,7.3c-2.8,2.1-5.9,3.8-9.3,4.9 C496.1,335.7,499.1,333.9,501.8,331.8L501.8,331.8z"></path><path class="st0" d="M216,342.5c1.3-0.8,2.9-1.1,4.4-0.8c1.5,0.2,3,0.6,4.4,1.2c8.6,2.7,17,2.5,25.9,0.7c-9.6,1.9-22.1-3.5-30-8.4 c-0.9-0.5-9.1-6.2-7.3-1.3c0.5,0.9,1.2,1.7,2.2,2.2c-2.8-0.1-5.4,1.3-6.8,3.8c-1.3,2.6-0.8,5.8,1.3,7.9c2,2,5.4,1.7,8,0.4 c-1.3,0.6-2.9,0-3.5-1.3c0-0.1-0.1-0.2-0.1-0.3C214.1,344.9,214.7,343.3,216,342.5z"></path><path class="st0" d="M466,347.2c-18.9-5-36-15.4-49.2-29.9c5.3,11.1,22.8,35.5,36.5,37.6c0-0.5-6.6-6.2-7.8-8.7 C451.1,349.8,460.2,350.1,466,347.2z M445.6,342.6c-2.7-1-5.4-2.3-7.9-3.7c-2.5-1.4-4.8-3.1-7-4.9c-2.1-1.8-4-3.8-5.7-6 c1.9,1.9,4,3.8,6.2,5.6c4.5,3.5,9.4,6.4,14.7,8.5c2.6,1.2,5.4,2.1,8.2,3C451.2,344.4,448.4,343.6,445.6,342.6L445.6,342.6z"></path><path class="st0" d="M509.5,348c2.5,1.3,5.9,1.6,8-0.4c2-2.1,2.5-5.2,1.3-7.9c-1.4-2.4-4-3.9-6.8-3.8c1-0.4,1.7-1.2,2.2-2.2 c1.9-4.9-6.4,0.8-7.3,1.3c-7.9,4.9-20.4,10.3-30,8.4c8.8,1.8,17.2,2,25.9-0.7c1.4-0.5,2.9-0.9,4.4-1.2c1.5-0.2,3.1,0.1,4.4,0.8 c1.3,0.9,1.9,2.4,1.6,3.9c-0.5,1.4-2.2,2.1-3.6,1.6C509.5,348,509.5,348,509.5,348z"></path><path class="st0" d="M258.6,341.3c21.6-2.2,39.2-11,52.8-28c-8.6,10.7-23.1,17.5-36.5,19.1c-4.5,0.6-9.1,0.7-13.6,0.3 c-2.1-0.3-4.2-0.7-6.2-1.4c-2.1-0.7-4.2-1.2-6.3-1.6c-2.2-0.3-4.5,0.1-6,1.7c-1.2,1.4-1.5,3.3-0.3,4.5c-7.9-5.5-11.5-13.7-13.5-22.6 c-2-8.7-9.4-14.5-12.8-7.9c-0.5-0.9-0.2-2.2-0.7-3.3c-0.8-1.7-2.9-2.3-4.1-0.8c-0.6,0.9-0.9,1.9-1,3c-1.2,11.9,3.3,22.8,13.4,29.7 S246.5,342.6,258.6,341.3z M225.3,332.3c-2.9-2.1-5.4-4.5-7.6-7.3c-2.2-2.8-3.7-6.1-4.6-9.5c-0.9-3.4-1.3-6.9-1.2-10.4 c0.2,3.5,0.8,7,1.8,10.3c1,3.3,2.5,6.4,4.6,9.2c2.1,2.7,4.6,5.2,7.3,7.4c2.7,2.2,5.7,4,8.9,5.4C231.2,336.1,228.1,334.4,225.3,332.3 L225.3,332.3z"></path><path class="st0" d="M251,311.2c-3.3,1-4.7,3.8-6.2,6.8c2.3-1.2,5.3-0.5,7.5,0.8s4.1,3.3,6.2,4.9c5.4,4.2,12.2,6.2,19,5.6 c4.5-0.4,8.8-2,12.6-4.6c-1.9,0.6-4,0.8-6,0.7c-4.9-0.2-9.3-3.3-11.2-7.8c-1.8-4.8-0.7-10.1,2.7-13.8c-1.9-1-4.3-0.9-6.1,0.3 c-1.8,1.2-2.2,3.6-1.9,5.7c-1.1-1.2-2.4-2.1-3.8-2.8c-1.5-0.5-3.4-0.3-4.3,1c-0.7,1.2-0.5,2.7,0.4,3.7 C257,310.6,253.9,310.4,251,311.2z M263.8,321.6c-0.3-0.3-0.5-0.7-0.7-1.1c-1.1-1.8-1.4-3.9-1.1-6c0.2,2,0.8,3.9,1.8,5.6 c0.7,1.2,1.6,2.4,2.6,3.4c1.1,0.7,2.3,1.3,3.6,1.7c2.1,0.6,4.3,1,6.5,1c-2.2,0.3-4.5,0.2-6.6-0.4c-2.2-0.6-4.2-1.6-6-3.1 c-1.8-1.4-3.3-2.9-4.9-4.5c-1.6-1.5-3.4-2.8-5.4-3.7c2.1,0.6,4.1,1.8,5.8,3.3C260.8,319,262.2,320.3,263.8,321.6z"></path><path class="st0" d="M274.2,355c13.7-2.1,31.1-26.5,36.5-37.6c-13.2,14.4-30.3,24.8-49.2,29.9c5.9,2.9,14.9,2.5,20.5-0.9 C280.9,348.8,274.3,354.5,274.2,355z M281.9,342.6c-2.8,1-5.6,1.8-8.4,2.5c2.8-0.9,5.5-1.9,8.2-3s5.3-2.4,7.7-3.8 c2.4-1.4,4.8-3,7-4.7c2.2-1.7,4.2-3.6,6.2-5.6c-1.7,2.2-3.6,4.1-5.7,6c-2.2,1.9-4.5,3.6-7,5C287.2,340.3,284.6,341.5,281.9,342.6z"></path><path class="st0" d="M226.1,219.1c-2.1-3.4-5.8-4.2-9.7-5c2.1,2.3,2.3,5.8,1.5,8.8s-2.4,5.6-3.6,8.5c-3.1,7.5-3.2,15.8-0.5,23.4 c1.9,5,5,9.5,9.1,12.9c-1.3-2-2.2-4.3-2.6-6.6c-1.3-5.7,0.8-11.6,5.4-15.2c3.3-2.4,7.4-3.4,11.5-2.9c8.4,15.9,23.7,24,41.7,30.4 c-12.3-2.7-25.1-7.4-33.1-16.8c1,5,4.1,8.9,7.8,12.4c-7.7-3.7-12.4,12.4-20.9,9.3c9.1,3.4,9.6,17.8,22.1,13.6 c-2.2,5-2.3,6.6-2.4,12.1c4.4-5.2,7.9-6.7,7.9-6.7c0,1.6,0.1,3.2,0.4,4.8c5.4-7.4,12.1-12.8,21-15c-1.8,2.2-2.2,5.7-0.4,7.8 c2,2.2,5.2,2.7,7.8,1.2c-2.2,0.2-4.3-2.1-4.3-4.3s1.5-4,3.2-5.3c4.9-3.8,12.8,0.4,17.2,3.2c8,4.9,13.1,13.4,15.6,22.4 c-1.6,2.3-2.9,4.7-4.1,7.3c-5.7,12.5-14.1,27.3-27.1,33.3c4.8,0.3,9.1-1.5,13.2-4c-5.3,6.1,8.3,14.3,3.3,21.2 c5.4-7.4,18.5-4.3,17.8-16.7c4,3.2,5.4,3.7,10.4,5.2c-3.6-5.3-4.1-8.8-4.1-8.8c1.4,0.4,2.9,0.7,4.4,0.8c-5.4-6.7-8.6-14.1-8.4-22.7 c1.5,2.2,4.6,3.5,7,2.3c2.5-1.3,3.7-4.1,3-6.7c-0.3,2-2.9,3.4-4.9,2.9c-1.9-0.7-3.4-2.2-4.1-4.2c-2.2-5.4,3.6-11.5,7.1-14.8 c4.1-3.6,9-6.2,14.3-7.4c3.5,2,6.8,4.3,10,6.7c-5.6,4.7-19.6,17.1-14.1,20.6s12.6-12.9,15.3-19.6c1.1,0.8,2.2,1.8,3.2,2.7 c-1.9,6.1-5.9,21.6,0.8,21.6s2.6-15.5,0.8-21.6c1.1-0.9,2.2-1.8,3.2-2.7c2.7,6.7,9.8,23.2,15.3,19.6s-8.4-15.9-14.1-20.6 c3.2-2.4,6.5-4.7,10-6.7c5.3,1.2,10.2,3.8,14.3,7.4c3.6,3.3,9.3,9.5,7.1,14.8c-0.7,1.9-2.2,3.5-4.1,4.2c-1.9,0.5-4.6-0.8-4.9-2.9 c-0.7,2.7,0.6,5.4,3,6.7c2.4,1.2,5.5-0.1,7-2.3c0.2,8.6-3,16-8.3,22.7c1.5-0.1,3-0.4,4.4-0.8c0,0-0.5,3.5-4.1,8.8 c5-1.5,6.3-1.9,10.4-5.2c-0.7,12.4,12.4,9.3,17.8,16.7c-5-6.9,8.5-15.2,3.3-21.2c4.1,2.5,8.4,4.3,13.2,4 c-13.1-6-21.4-20.7-27.1-33.3c-1.1-2.5-2.5-5-4.1-7.3c2.4-8.9,7.7-17.5,15.6-22.4c4.5-2.8,12.4-7,17.2-3.2c1.8,1.2,2.9,3.2,3.2,5.3 c0,2.2-2.2,4.5-4.3,4.2c2.6,1.5,5.8,0.9,7.8-1.2c1.8-2.2,1.5-5.6-0.4-7.8c8.9,2.2,15.6,7.6,21,15c0.3-1.6,0.4-3.2,0.4-4.8 c0,0,3.5,1.5,7.9,6.7c-0.2-5.5-0.2-7.1-2.4-12c12.6,4.3,13.1-10.1,22.1-13.6c-8.5,3.2-13.1-13-20.9-9.3c3.7-3.6,6.8-7.4,7.8-12.4 c-7.9,9.4-20.8,14.1-33.1,16.8c18-6.3,33.3-14.5,41.7-30.4c4.1-0.6,8.2,0.5,11.5,2.9c4.6,3.6,6.7,9.5,5.4,15.2 c-0.5,2.3-1.4,4.6-2.6,6.6c4-3.5,7.2-7.9,9.1-12.9c2.8-7.6,2.6-15.9-0.5-23.4c-1.2-2.9-2.8-5.6-3.6-8.5s-0.6-6.5,1.5-8.8 c-3.9,0.8-7.6,1.5-9.7,5c-1.8,3-2.6,6.6-2,10.1c-0.8-1.1-2.1-1.7-3.5-1.6c1.1-5.7,1.7-11.5,1.6-17.3c0-56.1-12.9-89.2,0-168.4 c-33,5-63,0.6-85.7-28c-15.5,7.6-32.3,2.6-47.9-13.5V0L364,0.2L363.5,0v0.5c-15.5,16.1-32.4,21.1-47.9,13.5 c-22.6,28.6-52.8,32.9-85.7,28c12.9,79.2,0,112.3,0,168.4c-0.1,5.8,0.5,11.6,1.6,17.3c-1.4-0.1-2.7,0.6-3.5,1.6 C228.6,225.8,227.9,222.2,226.1,219.1z M219.9,236.5c-1.2,1.2-2.3,2.6-3.1,4.1c-0.5,1.5-0.8,3.1-0.9,4.6c-0.1,2.6,0.2,5.2,0.9,7.7 c-1.1-2.4-1.7-5.1-1.7-7.7c0-2.7,0.5-5.3,1.6-7.8c1.1-2.4,2.2-4.7,3.5-7c1.2-2.3,2.1-4.8,2.5-7.3c-0.1,2.6-0.7,5.2-1.9,7.6 c-0.9,2.2-2,4.2-2.9,6.3c0.3-0.4,0.7-0.8,1-1.2c1.7-1.8,4.1-2.9,6.6-3.1C223.5,233.6,221.6,234.9,219.9,236.5z M508.3,235.8 c0.4,0.4,0.7,0.8,1,1.2c-0.9-2.1-2-4.1-2.9-6.3c-1.1-2.4-1.8-5-1.8-7.6c0.5,2.6,1.3,5,2.5,7.3c1.2,2.3,2.5,4.6,3.5,7 c1.1,2.5,1.6,5.1,1.6,7.8c-0.1,2.7-0.6,5.3-1.7,7.7c0.7-2.5,1-5.1,0.9-7.7c-0.1-1.6-0.4-3.1-0.8-4.6c-0.8-1.5-1.9-2.9-3.1-4.1 c-1.7-1.7-3.7-2.9-5.9-3.8C504.2,232.8,506.6,233.9,508.3,235.8L508.3,235.8z M493.9,235.5c0.3,0.6,0.6,1.2,1,1.9 c-0.5-0.2-1-0.4-1.5-0.5C493.5,236.4,493.6,235.9,493.9,235.5z M309.9,290.2c-1.1-1.1-2.4-2.1-3.7-3c-1.3-0.9-2.7-1.7-4.2-2.3 c-1.5-0.7-2.9-1.2-4.5-1.6c-6.2-1.9-12.7-1.9-19.1-1.4s-12.8,1.5-19.3,1.5c-3.3,0-6.5-0.2-9.7-0.7c-3.2-0.5-6.3-1.3-9.4-2.3 c6.2,1.7,12.6,2.4,19.1,2.3c6.4-0.2,12.8-1.2,19.2-1.7s13.1-0.4,19.3,1.6c3.1,1,6.1,2.4,8.7,4.3C307.6,287.9,308.8,289,309.9,290.2 c1.1,1.2,2.1,2.6,2.9,4C312,292.7,311.1,291.3,309.9,290.2L309.9,290.2z M335.9,302.7c-1.3,0.8-2.6,1.6-3.7,2.6 c-1.1,1-2.2,2.1-3.2,3.2c-0.9,1.2-1.8,2.4-2.6,3.6c-3.2,5.1-4.9,11-6,16.9c-1.2,6-1.9,12-3.4,17.9c-0.8,3-1.8,5.9-3,8.7 c-1.3,2.8-2.8,5.4-4.4,8c3.1-5.2,5.4-10.9,6.8-16.8c1.4-5.9,2.1-11.9,3.2-17.9s2.9-12,6.3-17.2c1.7-2.6,3.7-4.9,6.1-6.9 c1.2-0.9,2.5-1.8,3.9-2.5c1.3-0.7,2.8-1.2,4.3-1.5C338.6,301.4,337.2,302,335.9,302.7L335.9,302.7z M339.6,298.3 c-7.8,2.1-14.5,7-18.9,13.7c-0.8-4.1-0.9-8.3-2.2-12.4c-0.8-2.4-1.8-4.7-3-6.9c-2.5-4.4-6.1-8.2-10.4-11c13.3,4.1,27,8.7,39.7,15.8 C343.2,297.6,341.4,297.9,339.6,298.3L339.6,298.3z M407.9,329c1.2,6,1.9,12,3.3,17.9c1.4,5.9,3.7,11.5,6.8,16.8 c-1.7-2.6-3.1-5.2-4.4-8c-1.2-2.8-2.2-5.7-3-8.7c-1.5-6-2.2-12-3.4-17.9s-2.8-11.8-6-16.9c-0.8-1.3-1.7-2.5-2.6-3.6 c-1-1.2-2-2.2-3.2-3.2c-1.2-1-2.4-1.9-3.7-2.6c-1.3-0.7-2.7-1.3-4.2-1.8c1.5,0.4,2.9,0.9,4.3,1.5c1.3,0.7,2.6,1.6,3.9,2.5 c2.4,2,4.4,4.3,6.1,6.9C405,317,406.8,323,407.9,329L407.9,329z M409,299.7c-1.3,4.1-1.4,8.2-2.2,12.4c-4.4-6.7-11.1-11.6-18.9-13.7 c-1.7-0.4-3.4-0.7-5.2-0.8c12.7-7,26.4-11.6,39.7-15.8c-4.2,2.9-7.8,6.6-10.3,11C410.9,295,409.8,297.3,409,299.7L409,299.7z  M449.1,280.8c6.5,0.5,12.8,1.5,19.2,1.7c6.4,0.2,12.9-0.6,19.1-2.3c-3.1,1-6.2,1.7-9.4,2.3c-3.2,0.5-6.5,0.7-9.7,0.7 c-6.5-0.1-12.9-1.1-19.3-1.5s-12.9-0.5-19.1,1.4c-1.5,0.5-3,1-4.5,1.6c-1.4,0.7-2.8,1.5-4.2,2.3c-1.3,0.9-2.5,1.9-3.7,3 c-1.1,1.2-2.1,2.4-3,3.8c0.8-1.4,1.7-2.7,2.8-3.9c1.1-1.2,2.3-2.3,3.6-3.3c2.7-1.9,5.6-3.4,8.7-4.3 C436.1,280.5,442.8,280.5,449.1,280.8L449.1,280.8z M250,52.9c28,4.5,53.6,0.5,72.9-25.3c13.2,6.9,27.5,2.4,40.7-12.2V15l0.2,0.2 l0.2-0.2v0.5c13.2,14.6,27.5,19.1,40.7,12.2C424,53.5,449.6,57.4,477.6,53c-11,71.5,0,101.4,0,152c0,70.8-70.4,50.3-113.6,90.5v0.4 l-0.2-0.2l-0.2,0.2v-0.4C320.5,255.3,250,275.7,250,205C250,154.3,261,124.4,250,52.9z M233.8,235.5c0.1,0.5,0.3,0.9,0.5,1.4 c-0.5,0.1-1,0.3-1.5,0.5L233.8,235.5z"></path><path class="st0" d="M391.9,163.5h16.8c6.5,0.5,11.6,5.8,12,12.3l0,0v32.1c11.4-5.9,19.6-12.1,24.7-9.3v0.5 c-10.9-0.1-31.1,14.7-50.9,19.2V201c-13.3,0.9-21.1,3.6-24.6,8.1v8.7c0.1,0,0.1,0.1,0.1,0.1v21.3c30.7,19.7,68.5-28.3,81.2-14.8 v-22.7c-1.4-1.7-3.6-2.7-5.8-2.5v-34.7l0,0v-0.5l0,0c-0.1-12.3-10-22.4-22.3-22.7h-16.9c-6.5-0.5-11.6-5.8-12-12.3l0,0v-0.9l0,0 V92.6c-2.4-1.4-4.7-2.8-6.9-3.9c9.5,4.2,21.2,11.6,33.5,15.2v17.6c13.3,1.9,21.1,2,24.7-1.7v-13.9c-6.7,3.3-13.6,1.9-20.5-0.9 c8.9,1.9,17.8,1.3,26.3-4.4V77.8c-29.1,15.6-71-25.6-81.2-12.3v20.8l-0.5,0.5v52.3l0,0v0.5l0,0C369.9,152,379.8,163.3,391.9,163.5z"></path><path class="st0" d="M355.8,254.8v-23.2c0.2,0.2,0.3,0.4,0.5,0.5v-22c-3.5-4.7-11.4-8.2-24.6-10.1v19.2c-8.5-1.9-17.9-3-26.6-4.9 v-52.1h33.5v-20.8H305V94.9c8.7-0.3,18.1,0.1,26.6-0.3V113c13.3-0.9,21.1-3.6,24.6-8.1V85.8l-0.5,0.5V63 c-26.3,14.2-76.4,1.4-81.2,23.1v20.5c1.5-2.4,3.5-4.4,5.8-6v103.5c-2.3-1.9-4.3-4.3-5.8-6.9v20.4C279.4,240.3,329.5,236,355.8,254.8 z M280.5,100.8c3.8-2.3,7.9-3.9,12.3-4.6c-5.2,1.8-9.5,4.7-12.3,9.5V100.8z M280.5,198c4.4,8.4,12.4,12.8,21.9,15.7 c-8.4-1.9-16.1-4.7-21.9-9.5V198z"></path><polygon class="st0" points="59.8,467.5 29.2,467.5 29.2,440.4 61.3,440.4 61.3,425.7 29.2,425.7 29.2,401.8 59.6,401.8 60.4,413.2  75,413.2 75,387.2 10.1,387.2 0,387.2 0,398.6 10.1,400.6 10.1,468.8 0,470.7 0,482.1 75.2,482.1 75.2,456.1 60.7,456.1 "></polygon><path class="st0" d="M141.5,380.4h-29.3v11.4l10.2,1.9v25.3c-2-2.7-4.5-4.9-7.4-6.6c-2.9-1.6-6.2-2.4-9.5-2.3 c-8.7,0-15.5,3.4-20.4,10.3s-7.3,15.8-7.3,27v1.4c0,10.4,2.4,18.9,7.2,25.2s11.6,9.5,20.2,9.5c3.6,0.1,7.2-0.8,10.4-2.5 c3.2-1.8,5.9-4.4,7.9-7.4l1.5,8.7h25.7v-11.5l-9.1-1.9V380.4z M122.4,462.1c-1.2,2-3,3.7-5,4.9c-2.2,1.2-4.7,1.8-7.3,1.7 c-4.7,0-8.1-1.8-10.1-5.3s-3.1-8.4-3.1-14.6v-1.4c0-6.7,1.1-12.1,3.2-16.2c1.8-4,5.8-6.4,10.2-6.2c2.5,0,5,0.6,7.2,1.8 c2.1,1.3,3.8,3.1,5,5.3L122.4,462.1L122.4,462.1z"></path><path class="st0" d="M217,411.5h-27.4V423l8.3,1.9v38c-1.4,1.9-3.2,3.3-5.4,4.2c-2.5,1-5.1,1.5-7.8,1.5c-3.4,0-6-1.1-7.6-3.3 s-2.5-6-2.5-11v-42.8h-26.8V423l7.7,1.9v29.2c0,10,2.1,17.5,6.3,22.3s10,7.1,17.5,7.2c3.9,0.1,7.9-0.9,11.4-2.7 c3.4-1.8,6.2-4.4,8.4-7.7l1.2,9h25.4v-11.5l-8.6-1.9L217,411.5z"></path><path class="st0" d="M291.5,438.4c-5.4-4.8-13.4-8.7-23.9-11.5c-7.3-2.3-12.4-4.5-15.5-6.6s-4.5-4.7-4.5-8c-0.1-3.4,1.5-6.5,4.3-8.5 c2.9-2.2,6.9-3.3,12.1-3.3c3.4,0,6.8,0.4,10.1,1.2c2.5,0.6,5,1.5,7.3,2.7l2.5,13.1h14.3V398c-4.4-3.9-9.6-6.9-15.1-8.9 c-6.4-2.3-13.2-3.4-20-3.3c-9.9,0.2-18.1,2.6-24.6,7.5c-6.5,4.9-9.8,11.2-9.8,18.9c0,7.8,2.9,13.9,8.6,18.4s14.3,8.3,25.6,11.6 c6.5,1.9,11,4,13.6,6.3c2.5,2.2,4,5.4,3.9,8.8c0.1,3.3-1.4,6.5-4.1,8.5c-2.7,2.2-6.6,3.2-11.9,3.2c-3.7,0-7.4-0.5-11-1.5 c-2.8-0.8-5.5-2.1-7.8-3.9l-2-13.5h-14.8v19.8c4.3,4.4,9.4,7.7,15.1,9.9c6.5,2.4,13.4,3.7,20.4,3.6c10.5,0,19-2.4,25.4-7 c6.3-4.4,9.9-11.6,9.7-19.2C299.6,449.5,296.9,443.1,291.5,438.4z"></path><rect x="633.4" y="380.4" class="st0" width="19.1" height="14.3"></rect><path class="st0" d="M361.5,467.2V435c0-8-2.7-14.1-8.2-18.3s-12.6-6.4-21.3-6.4c-5,0-10,0.8-14.8,2.4c-4.2,1.5-8.3,3.5-12,5.9 l-0.1,15.7h14.4l1.2-7.6c1.3-0.8,2.6-1.4,4.1-1.8c1.9-0.5,3.8-0.8,5.8-0.8c3.9,0,6.7,0.9,8.7,2.8c2,2.1,3.1,5,2.9,7.9v6.9h-9.7 c-10.3,0-18,1.8-23.3,5.4c-5.2,3.3-8.2,9.2-8,15.3c0,6.5,2,11.6,6.1,15.4s9.6,5.6,16.5,5.6c3.8,0,7.6-0.8,11.1-2.4 c3.2-1.5,6-3.7,8.3-6.3c0.2,1.3,0.5,2.5,0.9,3.7c0.4,1.2,0.8,2.5,1.4,3.6h20.3v-11.4l0.7-0.2l-4.7-0.6 C361.6,469,361.5,468.1,361.5,467.2z M342.4,462.9c-1.4,2-3.3,3.5-5.5,4.6c-2.4,1.3-5.1,1.9-7.8,1.9c-2.3,0.1-4.6-0.6-6.4-2 c-1.6-1.4-2.4-3.5-2.3-5.6c0-2.6,1.2-5.1,3.2-6.8c2.1-1.9,5.2-2.9,9.2-2.9h9.7L342.4,462.9L342.4,462.9z"></path><polygon class="st0" points="652.5,411.5 623.2,411.5 623.2,423 633.4,425 633.4,468.8 624.6,470.6 625.3,470.7 625.3,482.1  661.6,482.1 661.6,470.7 652.5,468.8 "></polygon><path class="st0" d="M619.3,467.2V435c0-8-2.7-14.1-8.2-18.3s-12.6-6.4-21.3-6.4c-5,0-10,0.8-14.8,2.4c-4.2,1.5-8.3,3.5-12,5.9 l-0.1,15.7h14.4l1.2-7.6c1.3-0.8,2.6-1.4,4.1-1.8c1.9-0.5,3.8-0.8,5.8-0.8c3.9,0,6.7,0.9,8.7,2.8c2,2.1,3.1,5,2.9,7.9v6.9h-9.7 c-10.3,0-18,1.8-23.3,5.4c-5.2,3.3-8.2,9.1-8,15.3c0,6.5,2,11.6,6.1,15.4s9.7,5.7,16.5,5.7c3.8,0,7.6-0.8,11.1-2.4 c3.2-1.5,6-3.7,8.3-6.3c0.2,1.3,0.5,2.5,0.9,3.7c0.4,1.2,0.9,2.5,1.4,3.6h20.9v-11.5l0.4-0.1l-5.1-0.7 C619.3,469,619.2,468.1,619.3,467.2z M600.1,462.9c-1.4,2-3.3,3.5-5.5,4.6c-2.4,1.3-5.1,1.9-7.8,1.9c-2.3,0.1-4.6-0.6-6.4-2 c-1.6-1.4-2.4-3.5-2.3-5.6c0-2.6,1.2-5.1,3.2-6.8c2.1-1.9,5.2-2.9,9.2-2.9h9.7L600.1,462.9L600.1,462.9z"></path><path class="st0" d="M529.2,410.2c-3.6-0.1-7.1,0.8-10.2,2.5c-3,1.7-5.6,4.1-7.5,7l-0.9-8.2H483V423l10.2,1.9v70.8l-9.2,1.9v11.5 h37.4v-11.5l-9.2-1.9v-20.4c1.9,2.6,4.5,4.6,7.3,6c3.1,1.4,6.4,2.1,9.8,2.1c8.7,0,15.4-3.2,20.2-9.5s7.3-14.8,7.3-25.2v-1.3 c0-11.1-2.4-20.1-7.3-27S538,410.2,529.2,410.2z M537.7,448.8c0,6.2-1.1,11-3.2,14.7s-5.5,5.4-10.1,5.4c-2.6,0.1-5.1-0.5-7.5-1.5 c-2-1-3.7-2.6-4.8-4.6v-30.9c1.1-2.1,2.8-3.8,4.8-5c2.2-1.2,4.8-1.8,7.3-1.8c4.3-0.1,8.3,2.3,10.2,6.2c2.2,4.1,3.3,9.5,3.3,16.1 L537.7,448.8z"></path><path class="st0" d="M402.2,482.1v-11.4l-8.2-1.9v-38.1c1.2-1.8,2.9-3.2,4.8-4.2c2.1-1,4.4-1.5,6.7-1.5c3.5,0,6.1,1.1,7.8,3.2 s2.6,5.9,2.6,11v29.4l-7.7,1.9v11.4h34.5v-11.4l-7.7-1.9v-33c0-0.6,0-1.2-0.1-1.8c0-0.5-0.1-1.3-0.1-2.1c1.1-2.1,2.7-3.8,4.7-5 c2.1-1.2,4.5-1.9,7-1.8c3.4,0,6,1.1,7.7,3.2s2.6,5.8,2.6,11.1v29.4l-8.2,1.9v11.3h36.5v-11.4l-9.2-1.9v-29.4c0-9.8-2-17.2-6-21.9 s-9.5-7.2-16.5-7.2c-4.3-0.1-8.6,1-12.3,3.2c-3.5,2.2-6.5,5.3-8.5,8.9c-1.4-3.7-4-6.9-7.3-9c-3.5-2.1-7.5-3.1-11.6-3 c-4.1-0.1-8.2,0.9-11.8,2.8c-3.4,1.9-6.4,4.6-8.5,7.9l-0.8-9.3h-27.9v11.5l10.2,1.9v43.7l-8.5,1.9l1.1,0.2v11.3L402.2,482.1z"></path><path class="st0" d="M718.7,420.3c-5.9-6.7-14.1-10-24.5-10s-18.5,3.4-24.4,10.1s-8.8,15.4-8.8,25.9v1.4c0,10.6,2.9,19.2,8.8,26 c5.9,6.6,14.1,10,24.6,10s18.5-3.3,24.3-10s8.8-15.3,8.8-26v-1.4C727.5,435.6,724.6,426.9,718.7,420.3z M708.5,447.6 c0,6.4-1.2,11.6-3.4,15.5s-5.9,5.9-10.7,5.9s-8.7-1.9-11-5.9s-3.4-9-3.4-15.5v-1.4c0-6.3,1.2-11.4,3.4-15.4s5.9-5.9,10.8-5.9 s8.6,2,10.9,5.9s3.5,9,3.5,15.4L708.5,447.6L708.5,447.6z"></path><path class="st1" d="M523.2,527.4c0-4.6,4.2-7.8,10.1-7.8c5.4-0.2,10.5,2,14.2,5.9l3.7-4.5c-4.1-4.3-10-6.9-17.5-6.9 c-9.7,0-16.9,5.6-16.9,13.7c0,17.5,29.1,10.6,29.1,23.3c0,3.8-2.8,8.5-11.6,8.5c-5.9,0-11.5-2.6-15.5-7l-3.6,4.6 c4.1,4.6,10.3,7.8,18.8,7.8c13.3,0,18.2-7.3,18.2-14.4C552.3,532.1,523.2,538.5,523.2,527.4z"></path><path class="st1" d="M351.9,529.7c0-9-6.4-14.8-15.5-14.8h-19.8v49.2h6.1v-19.5h9.8l12.5,19.5h7.3L339.1,544 C345.8,543.4,351.9,538.5,351.9,529.7z M322.8,539.1v-18.8h12.9c5.8,0,9.8,3.9,9.8,9.3s-4,9.4-9.8,9.4H322.8z"></path><path class="st1" d="M465.3,514c-14.6,0-24.4,10.9-24.4,25.4c0,14.5,9.8,25.4,24.4,25.4s24.4-10.9,24.4-25.4S479.8,514,465.3,514z  M465.3,559.4c-11,0-18.1-8.6-18.1-20c0-11.4,7-20,18.1-20s18.1,8.5,18.1,20S476.2,559.5,465.3,559.4L465.3,559.4z"></path><path class="st1" d="M385.5,527.4c0-4.6,4.2-7.8,10.1-7.8c5.4-0.2,10.5,2,14.2,5.9l3.7-4.5c-4.1-4.3-10-6.9-17.5-6.9 c-9.7,0-16.9,5.6-16.9,13.7c0,17.5,29.1,10.6,29.1,23.3c0,3.8-2.8,8.5-11.6,8.5c-5.9,0-11.5-2.6-15.5-7l-3.6,4.6 c4.1,4.6,10.3,7.8,18.8,7.8c13.3,0,18.2-7.3,18.2-14.4C414.7,532.1,385.5,538.5,385.5,527.4z"></path><path class="st1" d="M280.1,544.8c0,9-4.9,14.7-13.9,14.7s-13.9-5.7-13.9-14.7v-30h-6.1v30c0,12.1,6.7,20,20.1,20 s20.1-7.8,20.1-20.1v-30h-6.1v30L280.1,544.8z"></path><path class="st1" d="M200.5,559.5c-10.7,0-18.9-8.3-18.9-20c0-11.7,8.2-20,18.9-20c5.4,0,10.5,2.7,13.5,7.2l5.2-2.9 c-4.2-6.2-11.2-9.9-18.7-9.7c-14.1,0-25.3,10.4-25.3,25.4c0,15.1,11.1,25.4,25.3,25.4c8.7,0,14.6-4.1,18.7-9.7l-5.3-2.9 C210.9,556.8,205.9,559.5,200.5,559.5z"></path></svg>